<svg width="24" height="24" viewBox="0 0 24 24" fill="none" xmlns="http://www.w3.org/2000/svg">
<rect width="24" height="24" rx="6" fill="#F27909" fill-opacity="0.1"/>
<path d="M10.399 5.16403C11.2768 4.27978 12.7099 4.27978 13.5952 5.15728L14.1429 5.70403C14.353 5.91403 14.6381 6.03478 14.9382 6.03478H15.711C16.9564 6.03478 17.9693 7.04653 17.9693 8.29153V9.06478C17.9693 9.36403 18.0893 9.64903 18.2994 9.85903L18.8396 10.399C19.2672 10.819 19.4998 11.389 19.4998 11.989C19.5073 12.589 19.2747 13.1598 18.8546 13.5865L18.2994 14.1415C18.0893 14.3515 17.9693 14.6365 17.9693 14.9373V15.709C17.9693 16.954 16.9564 17.9673 15.711 17.9673H14.9382C14.6381 17.9673 14.353 18.0865 14.1429 18.2965L13.6027 18.8365C13.16 19.2798 12.5823 19.4965 12.0046 19.4965C11.4269 19.4965 10.8492 19.2798 10.4065 18.8448L9.85883 18.2965C9.64875 18.0865 9.36365 17.9673 9.06354 17.9673H8.29076C7.04531 17.9673 6.03244 16.954 6.03244 15.709V14.9373C6.03244 14.6365 5.9124 14.3515 5.70232 14.134L5.16213 13.6015C4.28431 12.7248 4.27681 11.2915 5.15462 10.4073L5.70232 9.85903C5.9124 9.64903 6.03244 9.36403 6.03244 9.05653V8.29153C6.03244 7.04653 7.04531 6.03478 8.29076 6.03478H9.06354C9.36365 6.03478 9.64875 5.91403 9.85883 5.70403L10.399 5.16403ZM13.9328 13.2715C13.5652 13.2715 13.2726 13.5648 13.2726 13.924C13.2726 14.2915 13.5652 14.584 13.9328 14.584C14.2929 14.584 14.5855 14.2915 14.5855 13.924C14.5855 13.5648 14.2929 13.2715 13.9328 13.2715ZM14.3905 9.60403C14.1354 9.34978 13.7227 9.34978 13.4676 9.60403L9.61124 13.459C9.35615 13.714 9.35615 14.134 9.61124 14.389C9.73128 14.5165 9.89634 14.584 10.0689 14.584C10.249 14.584 10.414 14.5165 10.5341 14.389L14.3905 10.5348C14.6456 10.2798 14.6456 9.85903 14.3905 9.60403ZM10.0764 9.41653C9.71628 9.41653 9.41617 9.70903 9.41617 10.069C9.41617 10.4373 9.71628 10.729 10.0764 10.729C10.4365 10.729 10.7291 10.4373 10.7291 10.069C10.7291 9.70903 10.4365 9.41653 10.0764 9.41653Z" fill="#F27909"/>
</svg>
