<svg width="16" height="16" viewBox="0 0 16 16" fill="none" xmlns="http://www.w3.org/2000/svg">
<path d="M6.2975 1.09099C7.25 0.334241 8.585 0.304241 9.56675 1.00099L9.6875 1.09099L14.2543 4.74424C14.7568 5.13349 15.065 5.71174 15.1175 6.34099L15.125 6.49174V12.5735C15.125 14.141 13.8868 15.416 12.335 15.4985H10.8425C10.1293 15.4842 9.5525 14.9292 9.5 14.2317L9.4925 14.126V11.9817C9.4925 11.7485 9.31925 11.5542 9.0875 11.516L9.02 11.5085H7.01675C6.7775 11.516 6.5825 11.6885 6.5525 11.9135L6.545 11.9817V14.1192C6.545 14.1635 6.53675 14.216 6.53 14.2535L6.5225 14.2692L6.51425 14.321C6.425 14.9592 5.9 15.446 5.2475 15.4917L5.15 15.4985H3.8075C2.24 15.4985 0.9575 14.2692 0.875 12.7235V6.49174C0.88175 5.85349 1.16 5.26099 1.625 4.84849L6.2975 1.09099ZM9.035 1.90849C8.465 1.45099 7.655 1.42924 7.055 1.82599L6.94175 1.90849L2.38175 5.58424C2.12 5.77849 1.9625 6.07099 1.925 6.37849L1.91675 6.49849V12.5735C1.91675 13.571 2.69675 14.3885 3.6875 14.4485H5.15C5.315 14.4485 5.4575 14.3367 5.47925 14.1792L5.495 14.0442L5.5025 14.006V11.9817C5.5025 11.1792 6.1175 10.5267 6.905 10.466H9.02C9.82175 10.466 10.4743 11.0817 10.535 11.8692V14.126C10.535 14.2835 10.6475 14.4192 10.7975 14.4485H12.1918C13.1968 14.4485 14.0143 13.6767 14.0743 12.6935L14.0825 12.5735V6.49849C14.0743 6.17674 13.94 5.87599 13.7075 5.65174L13.61 5.56849L9.035 1.90849Z" fill="#E0E0E0"/>
</svg>
