<svg width="14" height="16" viewBox="0 0 14 16" fill="none" xmlns="http://www.w3.org/2000/svg">
<path d="M7.0216 0.500037L7.21297 0.503555C10.6449 0.61679 13.3866 3.44898 13.375 6.91452L13.3748 6.99127C13.3358 9.05847 12.3015 11.0939 10.5854 12.9105C9.73877 13.7923 8.79339 14.573 7.76803 15.237L7.7755 15.2315L7.73936 15.2621C7.32947 15.5566 6.7863 15.5777 6.35738 15.3252L6.26053 15.2621L6.21529 15.2266L5.9052 15.0179C4.61734 14.13 3.47035 13.0529 2.50519 11.8257L2.26771 11.5158C1.25655 10.1906 0.682457 8.58209 0.625 6.89473L0.628471 6.68105C0.741322 3.23855 3.56483 0.488331 7.0216 0.500037ZM7.01774 1.63814L6.83759 1.64057C4.02649 1.72627 1.76919 4.0342 1.75957 6.87494L1.77388 7.1427C1.87132 8.47808 2.35539 9.75818 3.17227 10.8288C4.18643 12.1873 5.43098 13.3562 6.849 14.282L6.91066 14.3286C6.96193 14.3731 7.03797 14.3731 7.08923 14.3286L7.15267 14.2809C8.10456 13.6645 8.9822 12.9397 9.76496 12.1244C11.3001 10.4994 12.2075 8.71361 12.2404 6.9805L12.2379 6.73187C12.1525 3.9121 9.85164 1.64782 7.01774 1.63814ZM6.99995 4.55097C8.34124 4.55097 9.42858 5.64166 9.42858 6.98709C9.42858 8.33253 8.34124 9.42322 6.99995 9.42322C5.65865 9.42322 4.57132 8.33253 4.57132 6.98709C4.57132 5.64166 5.65865 4.55097 6.99995 4.55097ZM6.99995 5.68904C6.28525 5.68904 5.70588 6.2702 5.70588 6.98709C5.70588 7.70399 6.28525 8.28515 6.99995 8.28515C7.71464 8.28515 8.29401 7.70399 8.29401 6.98709C8.29401 6.2702 7.71464 5.68904 6.99995 5.68904Z" fill="#E0E0E0"/>
</svg>
