<svg width="13" height="16" viewBox="0 0 13 16" fill="none" xmlns="http://www.w3.org/2000/svg">
<path d="M3.11614 1.32656C5.04395 0.206419 7.41355 0.225997 9.32328 1.37785C11.2142 2.55316 12.3635 4.65074 12.3529 6.90716C12.3088 9.14877 11.0764 11.2559 9.536 12.8848C8.64691 13.8292 7.6523 14.6643 6.57251 15.373C6.4613 15.4373 6.33948 15.4803 6.21307 15.5C6.09141 15.4948 5.97293 15.4589 5.86831 15.3954C4.21979 14.3305 2.77353 12.9712 1.59912 11.3829C0.6164 10.0571 0.0580893 8.4553 0 6.79508L0.00439961 6.55355C0.0846371 4.38645 1.25717 2.4067 3.11614 1.32656ZM6.977 4.94245C6.1933 4.60932 5.28974 4.79031 4.68822 5.4009C4.0867 6.01148 3.90586 6.93123 4.23014 7.73069C4.55443 8.53015 5.31986 9.05163 6.16906 9.05163C6.72538 9.05563 7.26016 8.83279 7.65424 8.43277C8.04832 8.03276 8.26895 7.4888 8.26699 6.9221C8.26995 6.05709 7.76069 5.27557 6.977 4.94245Z" fill="#F27909"/>
</svg>
