<svg width="11" height="12" viewBox="0 0 11 12" fill="none" xmlns="http://www.w3.org/2000/svg">
<path d="M5.13889 0C7.96 0 10.2857 2.23073 10.2857 4.99065C10.2857 6.38141 9.77567 7.67258 8.93617 8.76695C8.01003 9.97411 6.86853 11.0259 5.58366 11.8515C5.28959 12.0423 5.02419 12.0567 4.70145 11.8515C3.40925 11.0259 2.26775 9.97411 1.34955 8.76695C0.509435 7.67258 0 6.38141 0 4.99065C0 2.23073 2.32571 0 5.13889 0ZM5.13889 3.4661C4.20604 3.4661 3.44525 4.22868 3.44525 5.14605C3.44525 6.07062 4.20604 6.7978 5.13889 6.7978C6.07235 6.7978 6.84047 6.07062 6.84047 5.14605C6.84047 4.22868 6.07235 3.4661 5.13889 3.4661Z" fill="#F27909"/>
</svg>
