<svg width="12" height="12" viewBox="0 0 12 12" fill="none" xmlns="http://www.w3.org/2000/svg">
<path d="M9.7001 7.42752C9.29707 7.34083 8.97825 7.52794 8.69594 7.69136C8.40683 7.85976 7.85709 8.30572 7.54198 8.19158C5.92865 7.52732 4.41128 6.11522 3.75443 4.49542C3.63866 4.17359 4.08255 3.62035 4.2497 3.32782C4.4119 3.04466 4.59515 2.72282 4.51157 2.31678C4.43604 1.9519 3.45913 0.708832 3.11368 0.368906C2.88586 0.144368 2.65247 0.0208714 2.41288 0.000912391C1.51212 -0.0377581 0.50611 1.16415 0.329672 1.45168C-0.112353 2.0648 -0.109877 2.88062 0.3371 3.86984C1.4143 6.52687 5.48848 10.5368 8.15549 11.6545C8.64766 11.8846 9.09773 12 9.50199 12C9.89758 12 10.2498 11.8896 10.5526 11.6707C10.781 11.5391 12.0322 10.4831 11.9994 9.55814C11.9796 9.32238 11.8564 9.08661 11.6347 8.85833C11.2973 8.50967 10.0623 7.50362 9.7001 7.42752Z" fill="#F27909"/>
</svg>
