<svg width="36" height="32" viewBox="0 0 36 32" fill="none" xmlns="http://www.w3.org/2000/svg">
<path d="M17.9088 11.7896C17.4171 11.7885 16.9452 11.9656 16.5975 12.2817C16.2498 12.5978 16.055 13.0268 16.0562 13.4738C16.057 13.5556 16.0649 13.6372 16.0796 13.718C16.1361 14.0697 16.3154 14.3956 16.591 14.6477C17.0269 14.6168 17.466 14.5966 17.9088 14.5966C18.3516 14.5966 18.7888 14.6168 19.2242 14.6471C19.4532 14.438 19.6163 14.1768 19.6966 13.8909C19.2188 13.4825 19.0314 12.866 19.2106 12.2926C18.8699 11.971 18.3999 11.7894 17.9088 11.7896Z" fill="#F27909"/>
<path d="M30.4563 6.1032C30.5363 5.69896 30.2562 5.30798 29.8171 5.21113C27.6557 4.73506 25.4708 4.29997 23.373 3.92383C25.3776 4.77997 27.4766 5.73042 29.5584 6.73084C29.9903 6.76149 30.3779 6.49056 30.4563 6.1032Z" fill="#F27909"/>
<path d="M5.07695 6.90535C6.5469 6.15996 8.36176 6.27105 9.70852 7.18886C10.4883 7.74794 11.1458 8.435 11.647 9.21441C12.2905 10.1817 12.9939 11.1827 13.7368 12.1898C13.8837 12.3869 14.0276 12.575 14.1616 12.7513L14.3809 13.0387C14.4909 13.1775 14.6558 13.2723 14.8409 13.3031C14.8753 12.7751 15.0742 12.2668 15.4146 11.8378C14.8527 10.7055 14.4062 9.42381 14.8551 8.205C14.9949 7.79149 15.3289 7.45543 15.7672 7.28711C16.7232 6.92051 18.0015 7.36178 18.679 7.6582C19.9202 8.14904 20.7704 9.21388 20.899 10.4388C20.845 11.0764 20.7077 11.7058 20.4902 12.3139L20.4223 12.5149C20.3973 12.578 20.3834 12.6443 20.3809 12.7114C20.3801 12.9039 20.4928 13.0821 20.6761 13.1785C20.695 13.1885 20.7134 13.1993 20.7311 13.211C20.7588 13.2231 20.7873 13.2337 20.8163 13.243C21.1207 13.3337 21.4508 13.1976 21.5765 12.9298C21.9815 12.0381 22.205 11.087 22.236 10.1228C22.0475 8.98128 21.4634 7.92421 20.5686 7.10521C20.3611 6.90771 20.3353 6.60464 20.5069 6.38044C20.6753 6.1593 20.9942 6.0802 21.2628 6.19293L29.6367 9.79714C30.0582 9.97097 30.5556 9.81208 30.7649 9.43672C30.9628 9.06307 30.8033 8.61398 30.4024 8.41609C26.6589 6.57188 22.7554 4.83714 19.4151 3.53188C14.2771 1.53441 10.4465 0.522195 8.02819 0.522195C5.47846 0.4943 2.95068 0.953322 0.608398 1.86956L0.617662 9.11728L5.07695 6.90535ZM1.85275 3.01427C1.85257 2.77527 2.01886 2.56237 2.26712 2.48374C3.11553 2.21727 3.98678 2.01522 4.87192 1.87967C5.08946 1.84607 5.31019 1.92054 5.45096 2.075C5.59173 2.22947 5.63117 2.44048 5.5544 2.62855C5.47764 2.81661 5.29634 2.95316 5.0788 2.98676C4.40518 3.09012 3.74001 3.23473 3.08784 3.4196V5.61413C3.08784 5.92418 2.81135 6.17553 2.47029 6.17553C2.12923 6.17553 1.85275 5.92418 1.85275 5.61413V3.01427Z" fill="#F27909"/>
<path d="M34.2738 30.316H8.64575C8.30469 30.316 8.0282 30.0647 8.0282 29.7546C8.0282 29.4446 8.30469 29.1932 8.64575 29.1932H33.3351C33.0919 23.6228 29.2441 18.7118 23.5327 16.6821C17.8213 14.6524 11.33 15.8893 6.99567 19.8329C4.23917 22.3193 2.62581 25.6655 2.48266 29.1932H5.55803C5.89909 29.1932 6.17557 29.4446 6.17557 29.7546C6.17557 30.0647 5.89909 30.316 5.55803 30.316H1.54399C1.0324 30.316 0.617676 30.693 0.617676 31.1581C0.617676 31.6232 1.0324 32.0002 1.54399 32.0002H34.2738C34.7854 32.0002 35.2001 31.6232 35.2001 31.1581C35.2001 30.693 34.7854 30.316 34.2738 30.316ZM12.351 17.9651C12.6921 17.9651 12.9686 18.2165 12.9686 18.5265C12.9686 18.8366 12.6921 19.0879 12.351 19.0879C12.0099 19.0879 11.7335 18.8366 11.7335 18.5265C11.7335 18.2165 12.0099 17.9651 12.351 17.9651ZM5.15292 27.61C5.09153 27.9151 4.7697 28.1172 4.4341 28.0614C4.09849 28.0056 3.8762 27.713 3.93759 27.4079C4.45557 24.8346 5.82819 22.4673 7.87073 20.6245C8.53009 20.0241 9.2521 19.4833 10.0266 19.0099C10.3098 18.8371 10.6936 18.9057 10.8837 19.1632C11.0739 19.4207 10.9984 19.7695 10.7151 19.9424C10.0069 20.3747 9.34686 20.8691 8.74455 21.4183C6.87903 23.0998 5.62549 25.2608 5.15292 27.61Z" fill="#F27909"/>
</svg>
