<svg width="115" height="93" viewBox="0 0 115 93" fill="none" xmlns="http://www.w3.org/2000/svg">
<path d="M57.4794 17.8985C56.6984 17.8968 55.9488 18.1781 55.3966 18.6802C54.8443 19.1822 54.5349 19.8636 54.5367 20.5736C54.5381 20.7036 54.5506 20.8333 54.574 20.9615C54.6637 21.5201 54.9484 22.0378 55.3862 22.4382C56.0787 22.3891 56.7761 22.357 57.4794 22.357C58.1826 22.357 58.8771 22.3891 59.5686 22.4373C59.9324 22.1051 60.1915 21.6903 60.319 21.2362C59.5602 20.5875 59.2624 19.6084 59.547 18.6975C59.0059 18.1867 58.2594 17.8982 57.4794 17.8985Z" fill="white"/>
<path d="M77.4088 8.86638C77.5359 8.22431 77.091 7.6033 76.3936 7.44946C72.9605 6.69329 69.4901 6.00222 66.1581 5.40477C69.342 6.76463 72.676 8.27429 75.9826 9.86331C76.6686 9.91199 77.2843 9.48165 77.4088 8.86638Z" fill="white"/>
<path d="M37.0976 10.1406C39.4324 8.95668 42.3151 9.13313 44.4542 10.5909C45.6928 11.479 46.7372 12.5703 47.5332 13.8082C48.5553 15.3446 49.6725 16.9346 50.8525 18.5343C51.086 18.8473 51.3145 19.146 51.5274 19.426L51.8756 19.8826C52.0503 20.1031 52.3122 20.2536 52.6063 20.3025C52.6609 19.4638 52.9769 18.6566 53.5176 17.9752C52.625 16.1766 51.9158 14.1408 52.6289 12.2049C52.851 11.5481 53.3814 11.0144 54.0777 10.747C55.5961 10.1647 57.6265 10.8656 58.7025 11.3364C60.674 12.1161 62.0244 13.8074 62.2288 15.753C62.1429 16.7657 61.9249 17.7655 61.5794 18.7314L61.4715 19.0506C61.4318 19.1509 61.4097 19.2562 61.4058 19.3627C61.4046 19.6685 61.5834 19.9515 61.8747 20.1046C61.9047 20.1205 61.9338 20.1377 61.962 20.1563C62.0061 20.1754 62.0513 20.1924 62.0973 20.2071C62.5808 20.3511 63.1052 20.135 63.3048 19.7096C63.9481 18.2933 64.303 16.7826 64.3524 15.251C64.0529 13.4379 63.1251 11.7589 61.704 10.4581C61.3743 10.1444 61.3333 9.663 61.6059 9.30689C61.8734 8.95564 62.3799 8.82999 62.8065 9.00906L76.1072 14.7338C76.7768 15.0099 77.5669 14.7575 77.8993 14.1613C78.2136 13.5679 77.9603 12.8545 77.3235 12.5402C71.3774 9.61096 65.1773 6.85558 59.8717 4.78236C51.7108 1.60966 45.6264 0.00190489 41.7853 0.00190489C37.7354 -0.0424028 33.7204 0.686687 30 2.14201L30.0147 13.654L37.0976 10.1406ZM31.9765 3.9602C31.9762 3.58059 32.2403 3.24243 32.6346 3.11754C33.9822 2.69428 35.3661 2.37336 36.772 2.15806C37.1175 2.1047 37.4681 2.22297 37.6917 2.46832C37.9153 2.71367 37.9779 3.04883 37.856 3.34754C37.7341 3.64626 37.4461 3.86315 37.1006 3.91651C36.0306 4.08069 34.9741 4.31038 33.9382 4.60401V8.0897C33.9382 8.58218 33.4991 8.98141 32.9574 8.98141C32.4156 8.98141 31.9765 8.58218 31.9765 8.0897V3.9602Z" fill="white"/>
<path d="M83.4725 47.3249H42.766C42.2243 47.3249 41.7851 46.9256 41.7851 46.4332C41.7851 45.9407 42.2243 45.5415 42.766 45.5415H81.9816C81.5952 36.6937 75.4835 28.8932 66.4118 25.6694C57.3401 22.4456 47.0295 24.4101 40.1451 30.674C35.7668 34.6232 33.2042 39.9382 32.9768 45.5415H37.8616C38.4033 45.5415 38.8425 45.9407 38.8425 46.4332C38.8425 46.9256 38.4033 47.3249 37.8616 47.3249H31.4859C30.6733 47.3249 30.0146 47.9237 30.0146 48.6624C30.0146 49.4012 30.6733 50 31.4859 50H83.4725C84.2851 50 84.9438 49.4012 84.9438 48.6624C84.9438 47.9237 84.2851 47.3249 83.4725 47.3249ZM48.6513 27.7073C49.193 27.7073 49.6322 28.1065 49.6322 28.599C49.6322 29.0915 49.193 29.4907 48.6513 29.4907C48.1096 29.4907 47.6704 29.0915 47.6704 28.599C47.6704 28.1065 48.1096 27.7073 48.6513 27.7073ZM37.2181 43.0268C37.1206 43.5114 36.6095 43.8324 36.0764 43.7438C35.5433 43.6551 35.1903 43.1904 35.2878 42.7058C36.1105 38.6185 38.2907 34.8583 41.535 31.9313C42.5823 30.9776 43.7291 30.1187 44.9592 29.3668C45.4092 29.0922 46.0187 29.2012 46.3207 29.6102C46.6227 30.0192 46.5028 30.5733 46.0529 30.8479C44.9279 31.5346 43.8796 32.3198 42.9229 33.1922C39.9598 35.8629 37.9688 39.2954 37.2181 43.0268Z" fill="white"/>
<path d="M2.45 86V72.35C2.45 69.93 3.04 68.05 4.22 66.71C5.42 65.37 7.12 64.7 9.32 64.7C11.54 64.7 13.24 65.24 14.42 66.32C15.62 67.4 16.22 68.92 16.22 70.88C16.22 72.14 15.92 73.17 15.32 73.97C14.72 74.77 13.7 75.4 12.26 75.86V75.98C13.76 76.56 14.76 77.39 15.26 78.47C15.78 79.53 16.04 81.29 16.04 83.75V86H13.22V82.16C13.22 80.64 12.79 79.46 11.93 78.62C11.07 77.76 9.83 77.33 8.21 77.33H6.59V74.69H8.3C10.22 74.69 11.55 74.3 12.29 73.52C13.03 72.74 13.4 71.81 13.4 70.73C13.4 69.71 13.03 68.89 12.29 68.27C11.57 67.65 10.61 67.34 9.41 67.34C8.03 67.34 6.99 67.73 6.29 68.51C5.61 69.29 5.27 70.57 5.27 72.35V86H2.45ZM31.6166 86H19.6766V70.01C19.6766 68.53 20.1466 67.34 21.0866 66.44C21.7266 65.84 22.4466 65.45 23.2466 65.27C24.0466 65.09 25.0266 65 26.1866 65H31.6166V67.64H25.7966C23.5966 67.64 22.4966 68.56 22.4966 70.4V73.82H29.4266V76.46H22.4966V83.36H31.6166V86ZM45.6509 65V67.64H40.3409C38.3209 67.64 37.3109 68.46 37.3109 70.1C37.3109 70.98 37.7509 71.73 38.6309 72.35C39.5309 72.95 40.7409 73.53 42.2609 74.09C42.9409 74.35 43.5209 74.62 44.0009 74.9C44.4809 75.16 44.9609 75.51 45.4409 75.95C45.9209 76.39 46.2809 76.96 46.5209 77.66C46.7609 78.34 46.8809 79.13 46.8809 80.03C46.8809 81.03 46.6709 81.93 46.2509 82.73C45.8309 83.51 45.2909 84.13 44.6309 84.59C43.9709 85.03 43.2909 85.37 42.5909 85.61C41.9109 85.83 41.2409 85.95 40.5809 85.97C40.3009 85.99 39.9009 86 39.3809 86H34.7009V83.36H39.2909C40.6509 83.36 41.7609 83.08 42.6209 82.52C43.4809 81.94 43.9109 81.1 43.9109 80C43.9109 79.46 43.7909 78.99 43.5509 78.59C43.3109 78.17 42.9609 77.81 42.5009 77.51C42.0609 77.21 41.6009 76.95 41.1209 76.73C40.6609 76.51 40.1009 76.28 39.4409 76.04C39.2609 75.98 39.1209 75.93 39.0209 75.89C35.8809 74.69 34.3109 72.73 34.3109 70.01C34.3109 68.33 34.8509 67.08 35.9309 66.26C37.0109 65.42 38.4209 65 40.1609 65H45.6509ZM61.9681 86H50.0281V70.01C50.0281 68.53 50.4981 67.34 51.4381 66.44C52.0781 65.84 52.7981 65.45 53.5981 65.27C54.3981 65.09 55.3781 65 56.5381 65H61.9681V67.64H56.1481C53.9481 67.64 52.8481 68.56 52.8481 70.4V73.82H59.7781V76.46H52.8481V83.36H61.9681V86ZM65.2625 86V72.35C65.2625 69.93 65.8525 68.05 67.0325 66.71C68.2325 65.37 69.9325 64.7 72.1325 64.7C74.3525 64.7 76.0525 65.24 77.2325 66.32C78.4325 67.4 79.0325 68.92 79.0325 70.88C79.0325 72.14 78.7325 73.17 78.1325 73.97C77.5325 74.77 76.5125 75.4 75.0725 75.86V75.98C76.5725 76.56 77.5725 77.39 78.0725 78.47C78.5925 79.53 78.8525 81.29 78.8525 83.75V86H76.0325V82.16C76.0325 80.64 75.6025 79.46 74.7425 78.62C73.8825 77.76 72.6425 77.33 71.0225 77.33H69.4025V74.69H71.1125C73.0325 74.69 74.3625 74.3 75.1025 73.52C75.8425 72.74 76.2125 71.81 76.2125 70.73C76.2125 69.71 75.8425 68.89 75.1025 68.27C74.3825 67.65 73.4225 67.34 72.2225 67.34C70.8425 67.34 69.8025 67.73 69.1025 68.51C68.4225 69.29 68.0825 70.57 68.0825 72.35V86H65.2625ZM96.9791 65V75.11C96.9791 77.81 96.3591 80.16 95.1191 82.16C93.8791 84.14 92.0391 85.62 89.5991 86.6C87.1791 85.64 85.3391 84.19 84.0791 82.25C82.8191 80.31 82.1891 78.02 82.1891 75.38V65H85.0691V75.02C85.0691 77.02 85.3991 78.7 86.0591 80.06C86.7191 81.42 87.9091 82.57 89.6291 83.51C91.3091 82.55 92.4791 81.39 93.1391 80.03C93.8191 78.67 94.1591 77 94.1591 75.02V65H96.9791ZM112.505 86H100.565V70.01C100.565 68.53 101.035 67.34 101.975 66.44C102.615 65.84 103.335 65.45 104.135 65.27C104.935 65.09 105.915 65 107.075 65H112.505V67.64H106.685C104.485 67.64 103.385 68.56 103.385 70.4V73.82H110.315V76.46H103.385V83.36H112.505V86ZM103.475 61.88C103.155 61.56 102.995 61.16 102.995 60.68C102.995 60.2 103.155 59.8 103.475 59.48C103.795 59.16 104.195 59 104.675 59C105.155 59 105.555 59.16 105.875 59.48C106.195 59.8 106.355 60.2 106.355 60.68C106.355 61.16 106.195 61.56 105.875 61.88C105.555 62.2 105.155 62.36 104.675 62.36C104.195 62.36 103.795 62.2 103.475 61.88ZM108.875 61.88C108.555 61.56 108.395 61.16 108.395 60.68C108.395 60.2 108.555 59.8 108.875 59.48C109.195 59.16 109.595 59 110.075 59C110.555 59 110.955 59.16 111.275 59.48C111.595 59.8 111.755 60.2 111.755 60.68C111.755 61.16 111.595 61.56 111.275 61.88C110.955 62.2 110.555 62.36 110.075 62.36C109.595 62.36 109.195 62.2 108.875 61.88Z" fill="white"/>
</svg>
