<svg width="14" height="12" viewBox="0 0 14 12" fill="none" xmlns="http://www.w3.org/2000/svg">
<path d="M0.25 5.99992C0.25 5.68465 0.480853 5.4241 0.78037 5.38286L0.863636 5.37718L11.6508 5.3775L7.75356 1.43903C7.5134 1.19636 7.51256 0.802064 7.75169 0.558346C7.96907 0.336783 8.30994 0.31594 8.55055 0.496304L8.6195 0.556449L13.5695 5.55829L13.5816 5.57141C13.5942 5.58486 13.6062 5.59887 13.6175 5.61342L13.5695 5.55829C13.5933 5.58239 13.6148 5.60798 13.634 5.63477C13.6455 5.65161 13.6567 5.66908 13.6671 5.68713C13.6905 5.7273 13.7086 5.76933 13.722 5.81256C13.7265 5.82779 13.7307 5.84335 13.7343 5.85914C13.7372 5.87119 13.7396 5.88344 13.7416 5.89574C13.7437 5.90907 13.7454 5.92241 13.7468 5.93587C13.7483 5.94938 13.7493 5.9632 13.7498 5.97702C13.7499 5.98469 13.75 5.99229 13.75 5.99992L13.7498 6.02059C13.7493 6.03593 13.7482 6.05125 13.7466 6.06653L13.75 5.99992C13.75 6.03548 13.7471 6.07034 13.7414 6.10427C13.7389 6.11973 13.7357 6.13526 13.7319 6.15067C13.7289 6.16291 13.7256 6.17494 13.7219 6.1868C13.7176 6.2009 13.7126 6.21511 13.7071 6.22916C13.7014 6.24366 13.6953 6.25783 13.6886 6.27171C13.6836 6.28234 13.6779 6.2933 13.672 6.30411C13.6607 6.3244 13.6487 6.34344 13.6359 6.36174C13.6338 6.3646 13.6316 6.36776 13.6292 6.3709C13.6088 6.3987 13.5876 6.42322 13.5646 6.44593L8.61953 11.4435C8.3794 11.6862 7.99087 11.6854 7.75172 11.4417C7.53432 11.2201 7.51522 10.8741 7.69396 10.6307L7.75352 10.561L11.65 6.62325L0.863636 6.62266C0.524734 6.62266 0.25 6.34385 0.25 5.99992Z" fill="#F27909"/>
</svg>
