<svg width="24" height="24" viewBox="0 0 24 24" fill="none" xmlns="http://www.w3.org/2000/svg">
<rect width="24" height="24" rx="6" fill="#219653" fill-opacity="0.1"/>
<path d="M19.5406 5.80223C19.2269 5.73557 18.9182 5.93348 18.8511 6.24399L18.429 8.19407C17.0852 5.92432 14.6188 4.5 11.9155 4.5C7.75239 4.5 4.36548 7.85338 4.36548 11.9754C4.36548 12.2929 4.62548 12.5504 4.94625 12.5504C5.26697 12.5504 5.52702 12.2929 5.52702 11.9754C5.52702 8.48757 8.39287 5.65006 11.9155 5.65006C14.2121 5.65006 16.3068 6.86465 17.441 8.79859L15.5047 8.38774C15.191 8.32118 14.8823 8.51903 14.8152 8.82955C14.748 9.14006 14.9478 9.44579 15.2614 9.51231L18.5851 10.2175C18.6415 10.2295 18.6989 10.233 18.7554 10.2283C18.8496 10.2204 18.9414 10.1898 19.0222 10.138C19.1516 10.0552 19.2424 9.92486 19.2747 9.77577L19.987 6.48495C20.054 6.17448 19.8543 5.86884 19.5406 5.80223Z" fill="#219653"/>
<path d="M18.9563 11.2223C18.6358 11.2328 18.3844 11.4986 18.395 11.816C18.4513 13.5046 17.8402 15.1138 16.674 16.3474C15.5078 17.5808 13.9264 18.2909 12.2209 18.3466C12.1498 18.3489 12.0791 18.3501 12.0083 18.3501C9.78297 18.35 7.73299 17.2057 6.57526 15.3516L8.59388 15.8876C8.90369 15.9698 9.22218 15.7878 9.30525 15.481C9.38833 15.1743 9.20452 14.859 8.89472 14.7767L5.61155 13.9051C5.46278 13.8657 5.30421 13.8863 5.17086 13.9625C5.03742 14.0386 4.94009 14.1643 4.90018 14.3116L4.01996 17.5624C3.93689 17.8691 4.12069 18.1844 4.4305 18.2667C4.48091 18.2801 4.53146 18.2865 4.58126 18.2865C4.83764 18.2865 5.07232 18.1171 5.14187 17.8602L5.63664 16.0332C7.01302 18.179 9.40882 19.5002 12.008 19.5001C12.0915 19.5001 12.1755 19.4988 12.2593 19.496C14.2748 19.4301 16.1439 18.591 17.522 17.1333C18.9002 15.6755 19.6225 13.7737 19.5559 11.778C19.5454 11.4607 19.2768 11.211 18.9563 11.2223Z" fill="#219653"/>
</svg>
